<svg width="136" height="19" viewBox="0 0 136 19" fill="none" xmlns="http://www.w3.org/2000/svg">
<path d="M-1.38208e-05 18.4304V0.248578H6.48081C7.88943 0.248578 9.05834 0.491239 9.98756 0.976561C10.9227 1.46188 11.6211 2.13364 12.0827 2.99183C12.5444 3.8441 12.7752 4.82954 12.7752 5.94815C12.7752 7.06084 12.5414 8.04036 12.0739 8.88672C11.6122 9.72715 10.9138 10.3812 9.97868 10.8487C9.04947 11.3163 7.88055 11.5501 6.47193 11.5501H1.56249V9.18856H6.22335C7.11114 9.18856 7.8332 9.06132 8.38955 8.80682C8.95181 8.55232 9.36315 8.18241 9.62357 7.69709C9.88398 7.21177 10.0142 6.62879 10.0142 5.94815C10.0142 5.2616 9.88102 4.66678 9.61469 4.16371C9.35427 3.66063 8.94293 3.27592 8.38067 3.00959C7.82432 2.73733 7.09338 2.60121 6.18784 2.60121H2.74324V18.4304H-1.38208e-05ZM8.97548 10.2273L13.4677 18.4304H10.3427L5.93926 10.2273H8.97548ZM16.1133 18.4304V0.248578H27.5124V2.61008H18.8565V8.14986H26.9176V10.5025H18.8565V16.0689H27.619V18.4304H16.1133ZM37.0628 18.4304H31.1767V0.248578H37.2492C39.0307 0.248578 40.5606 0.61257 41.839 1.34055C43.1174 2.06262 44.097 3.10132 44.7776 4.45668C45.4642 5.80611 45.8074 7.42483 45.8074 9.31285C45.8074 11.2068 45.4612 12.8344 44.7687 14.1957C44.0822 15.5569 43.0878 16.6045 41.7858 17.3384C40.4837 18.0664 38.9093 18.4304 37.0628 18.4304ZM33.92 16.0334H36.9118C38.2968 16.0334 39.4479 15.773 40.3653 15.2521C41.2827 14.7254 41.9692 13.9648 42.425 12.9705C42.8807 11.9703 43.1086 10.7511 43.1086 9.31285C43.1086 7.88648 42.8807 6.67614 42.425 5.68182C41.9752 4.6875 41.3034 3.93288 40.4097 3.41797C39.516 2.90305 38.4063 2.6456 37.0805 2.6456H33.92V16.0334ZM49.8513 18.4304H46.9394L53.4823 0.248578H56.6517L63.1947 18.4304H60.2827L55.1425 3.55113H55.0004L49.8513 18.4304ZM50.3396 11.3104H59.7856V13.6186H50.3396V11.3104ZM80.067 6.16122H77.2971C77.1906 5.56936 76.9923 5.04853 76.7023 4.59872C76.4123 4.14891 76.0572 3.76716 75.637 3.45348C75.2168 3.13979 74.7462 2.90305 74.2254 2.74325C73.7105 2.58345 73.163 2.50355 72.583 2.50355C71.5354 2.50355 70.5973 2.76693 69.7687 3.29368C68.946 3.82043 68.295 4.5928 67.8156 5.61079C67.3421 6.62879 67.1054 7.87168 67.1054 9.33949C67.1054 10.8191 67.3421 12.0679 67.8156 13.0859C68.295 14.1039 68.949 14.8733 69.7776 15.3942C70.6062 15.915 71.5384 16.1754 72.5741 16.1754C73.1482 16.1754 73.6927 16.0985 74.2076 15.9446C74.7285 15.7848 75.199 15.551 75.6192 15.2433C76.0394 14.9355 76.3945 14.5597 76.6846 14.1158C76.9805 13.666 77.1847 13.151 77.2971 12.571L80.067 12.5799C79.9191 13.4736 79.632 14.2963 79.2059 15.0479C78.7856 15.7937 78.2441 16.4388 77.5812 16.9833C76.9243 17.5219 76.1726 17.9392 75.3262 18.2351C74.4799 18.531 73.5566 18.679 72.5564 18.679C70.982 18.679 69.5793 18.3061 68.3483 17.5604C67.1172 16.8087 66.1466 15.7345 65.4363 14.3377C64.732 12.9409 64.3799 11.2749 64.3799 9.33949C64.3799 7.3982 64.735 5.73212 65.4452 4.34126C66.1554 2.94448 67.1261 1.87322 68.3571 1.12748C69.5882 0.375827 70.9879 -1.37091e-06 72.5564 -1.37091e-06C73.5211 -1.37091e-06 74.4207 0.139085 75.2552 0.417258C76.0957 0.689511 76.8503 1.09197 77.5191 1.62464C78.1879 2.1514 78.7413 2.79652 79.1792 3.56001C79.6172 4.31759 79.9131 5.18466 80.067 6.16122ZM82.4529 2.61008V0.248578H96.5243V2.61008H90.8514V18.4304H88.117V2.61008H82.4529ZM102.377 0.248578V18.4304H99.6338V0.248578H102.377ZM106.372 18.4304V0.248578H117.647V2.61008H109.115V8.14986H116.839V10.5025H109.115V18.4304H106.372ZM119.618 0.248578H122.734L127.484 8.51385H127.679L132.429 0.248578H135.545L128.948 11.2926V18.4304H126.214V11.2926L119.618 0.248578Z" fill="url(#paint0_linear_12_24)"/>
<defs>
<linearGradient id="paint0_linear_12_24" x1="-1.99753" y1="16.9304" x2="155.002" y2="16.9304" gradientUnits="userSpaceOnUse">
<stop stop-color="#868CFF"/>
<stop offset="1" stop-color="#4318FF"/>
</linearGradient>
</defs>
</svg>
